External Loads File
version=1
nRows=62
nColumns=13
Range=5.000000e-03-10 seconds
endheader
time 	forceRightX 	forceRightY 	forceRightZ 	pointRightX 	pointRightY 	pointRightZ 	forceLeftX 	forceLeftY 	forceLeftZ 	pointLeftX 	pointLeftY 	pointLeftZ 		
7.505000 -40.438632 -22.221861 -0.000000 0.049311 0.320906 -0.101693 -165.890030 447.052967 -0.000000 0.328750 0.302186 -0.347063
7.510000 -36.982507 -15.367169 -0.000000 0.050750 0.331821 -0.101781 -165.205227 480.897069 -0.000000 0.327294 0.291033 -0.346923
7.515000 -31.935223 -8.115919 -0.000000 0.052828 0.342578 -0.101976 -163.354452 515.280142 -0.000000 0.325192 0.280131 -0.346750
7.520000 -25.358955 -0.820220 -0.000000 0.055529 0.353326 -0.102049 -159.549387 550.459963 -0.000000 0.322485 0.269384 -0.346543
7.525000 -17.352920 6.077265 -0.000000 0.058841 0.363920 -0.102283 -153.736765 586.386664 -0.000000 0.319174 0.258851 -0.346397
7.530000 -8.125353 12.174319 -0.000000 0.062803 0.374370 -0.102335 -145.228149 623.137400 -0.000000 0.315224 0.248386 -0.346319
7.535000 1.947146 17.119934 -0.000000 0.067285 0.384519 -0.102505 -134.706762 660.417902 -0.000000 0.310796 0.238218 -0.346154
7.540000 12.354478 20.696884 -0.000000 0.072533 0.394468 -0.102653 -121.493757 698.200970 -0.000000 0.305779 0.228413 -0.346101
7.545000 22.425526 22.814327 -0.000000 0.078014 0.404109 -0.102735 -105.942869 736.101025 -0.000000 0.300233 0.218818 -0.345933
7.550000 31.422398 23.556326 -0.000000 0.083954 0.413468 -0.103008 -88.120905 773.652562 -0.000000 0.294153 0.209743 -0.345597
7.555000 38.665004 23.188115 -0.000000 0.090422 0.422635 -0.103174 -67.933769 810.307192 -0.000000 0.287660 0.201253 -0.345176
7.560000 43.692488 22.074457 -0.000000 0.097626 0.431631 -0.103190 -44.295202 845.503621 -0.000000 0.280623 0.193197 -0.344826
7.565000 46.219611 20.878750 -0.000000 0.104553 0.440238 -0.103366 -19.981258 878.438865 -0.000000 0.273177 0.185553 -0.344524
7.570000 46.399948 20.057025 -0.000000 0.112653 0.448365 -0.103460 7.851200 908.598735 -0.000000 0.265321 0.178321 -0.344321
7.575000 44.503752 20.444714 -0.000000 0.120566 0.456005 -0.103826 35.606346 935.328727 -0.000000 0.257039 0.171729 -0.344047
7.580000 41.095244 22.616294 -0.000000 0.128660 0.462944 -0.104053 63.424997 958.047727 -0.000000 0.248418 0.165647 -0.343878
7.585000 36.821294 26.968154 -0.000000 0.137060 0.469232 -0.104574 91.263108 976.073624 -0.000000 0.239490 0.160223 -0.343714
7.590000 32.292916 33.616865 -0.000000 0.145991 0.474557 -0.104758 119.113387 988.671843 -0.000000 0.230307 0.155293 -0.343650
7.595000 27.952130 42.386671 -0.000000 0.155144 0.479447 -0.104834 146.021394 995.229452 -0.000000 0.220910 0.151112 -0.343579
7.600000 24.051024 52.790179 -0.000000 0.164491 0.483480 -0.104836 171.287368 995.205485 -0.000000 0.211325 0.147500 -0.343518
7.605000 20.669063 64.139332 -0.000000 0.174005 0.486870 -0.104799 194.333003 988.164440 -0.000000 0.201651 0.144402 -0.343543
7.610000 17.811999 75.662158 -0.000000 0.183836 0.489549 -0.104711 215.221139 973.691769 -0.000000 0.191846 0.142116 -0.343539
7.615000 15.180340 86.682765 -0.000000 0.193211 0.491702 -0.104764 231.198647 952.227792 -0.000000 0.182053 0.140435 -0.343690
7.620000 12.679020 96.604513 -0.000000 0.202512 0.493176 -0.104849 243.209978 923.718617 -0.000000 0.172292 0.139419 -0.343362
7.625000 10.107381 105.079299 -0.000000 0.211734 0.494097 -0.104920 250.938509 888.663430 -0.000000 0.162634 0.139198 -0.343725
7.630000 7.424973 111.993757 -0.000000 0.220764 0.494240 -0.105022 255.080123 847.572724 -0.000000 0.153021 0.140786 -0.344076
7.635000 4.507510 117.464510 -0.000000 0.229499 0.493800 -0.105085 254.987510 801.611322 -0.000000 0.143541 0.141889 -0.343537
7.640000 1.396529 121.733991 -0.000000 0.238072 0.492606 -0.105186 251.000437 751.847617 -0.000000 0.134227 0.142632 -0.344599
7.645000 -1.579423 125.105975 -0.000000 0.246328 0.490609 -0.105129 244.989997 698.835009 -0.000000 0.125084 0.145350 -0.344596
7.650000 -4.398046 127.905635 -0.000000 0.254284 0.487920 -0.105046 236.707134 643.705182 -0.000000 0.116215 0.148740 -0.344619
7.655000 -6.804842 130.443656 -0.000000 0.261942 0.484511 -0.105088 227.153020 586.995587 -0.000000 0.107413 0.152762 -0.343735
7.660000 -8.983437 132.981253 -0.000000 0.269171 0.480463 -0.104993 215.492037 529.786383 -0.000000 0.099317 0.157474 -0.343493
7.665000 -10.821902 135.791770 -0.000000 0.276010 0.475648 -0.104978 202.758660 472.324757 -0.000000 0.091661 0.162725 -0.344085
7.670000 -12.311774 139.197548 -0.000000 0.282434 0.470063 -0.104932 189.606463 414.889395 -0.000000 0.084383 0.168711 -0.343951
7.675000 -13.669995 143.547154 -0.000000 0.288365 0.463825 -0.104945 175.924736 358.072970 -0.000000 0.077544 0.175281 -0.343802
7.680000 -14.963672 149.177053 -0.000000 0.294148 0.456826 -0.104872 161.984765 302.342970 -0.000000 0.071379 0.182364 -0.343737
7.685000 -16.458174 156.315577 -0.000000 0.299388 0.449336 -0.104894 147.532433 248.499049 -0.000000 0.065787 0.189942 -0.343669
7.690000 -18.202416 165.109676 -0.000000 0.304301 0.441243 -0.104891 132.776459 197.229181 -0.000000 0.060815 0.197875 -0.343557
7.695000 -20.351971 175.605490 -0.000000 0.308741 0.432567 -0.104875 117.819007 149.582192 -0.000000 0.056443 0.206133 -0.343574
7.700000 -22.949690 187.771047 -0.000000 0.312699 0.423375 -0.104667 103.091033 106.723647 -0.000000 0.052524 0.214697 -0.343517
7.705000 -26.227510 201.460777 -0.000000 0.316386 0.413627 -0.104789 89.068916 69.766838 -0.000000 0.049179 0.223002 -0.343284
7.710000 -29.689724 216.566836 -0.000000 0.319498 0.403314 -0.104714 76.499147 39.007836 -0.000000 0.046287 0.232172 -0.343280
7.715000 -33.815273 232.840528 -0.000000 0.322131 0.392882 -0.104598 65.677658 14.618064 -0.000000 0.043825 0.241521 -0.343230
7.720000 -38.433127 250.141329 -0.000000 0.324295 0.382179 -0.104524 56.949505 -3.984134 -0.000000 0.041807 0.251109 -0.343008
7.725000 -43.413478 268.392937 -0.000000 0.325994 0.371168 -0.104352 50.375339 -17.644873 -0.000000 0.040220 0.260878 -0.342822
7.730000 -48.400344 287.624974 -0.000000 0.327286 0.359977 -0.104223 45.778318 -27.381516 -0.000000 0.039176 0.271049 -0.342541
7.735000 -53.403798 307.818381 -0.000000 0.328082 0.348636 -0.103969 42.876246 -34.133244 -0.000000 0.038664 0.281241 -0.342359
7.740000 -57.847963 329.002683 -0.000000 0.328531 0.337269 -0.104325 41.281243 -38.815379 -0.000000 0.038787 0.291665 -0.342242
7.745000 -61.686061 351.034748 -0.000000 0.328443 0.325967 -0.104223 40.667737 -42.113460 -0.000000 0.039424 0.302028 -0.342112
7.750000 -64.075650 373.841538 -0.000000 0.328015 0.314618 -0.103764 40.651225 -44.638861 -0.000000 0.040557 0.312467 -0.341924
7.755000 -64.792664 397.211578 -0.000000 0.326863 0.303429 -0.104046 40.961851 -46.731849 -0.000000 0.042328 0.322984 -0.341971
7.760000 -63.479227 420.945691 -0.000000 0.325250 0.292356 -0.104348 41.365575 -48.570028 -0.000000 0.044590 0.333494 -0.341882
7.765000 -60.109996 444.757573 -0.000000 0.323127 0.281538 -0.104312 41.737640 -50.176199 -0.000000 0.047419 0.343908 -0.341790
7.770000 -54.012448 468.381172 -0.000000 0.320494 0.270763 -0.104402 41.950205 -51.568802 -0.000000 0.050843 0.354245 -0.341757
7.775000 -45.536333 491.350653 -0.000000 0.317602 0.260222 -0.104073 42.040188 -52.659060 -0.000000 0.054774 0.364485 -0.341823
7.780000 -34.610146 513.229837 -0.000000 0.314060 0.250003 -0.104540 42.026351 -53.443687 -0.000000 0.059382 0.374575 -0.341709
7.785000 -21.583620 533.533280 -0.000000 0.310065 0.239994 -0.104530 41.975385 -53.955510 -0.000000 0.064300 0.384501 -0.341725
7.790000 -7.280467 551.780816 -0.000000 0.305585 0.230511 -0.104444 41.953993 -54.259311 -0.000000 0.069787 0.394094 -0.341675
7.795000 8.273922 567.563060 -0.000000 0.300706 0.221358 -0.104430 41.862672 -54.522859 -0.000000 0.075773 0.403431 -0.341712
7.800000 24.190512 580.554733 -0.000000 0.295433 0.212738 -0.104058 41.611045 -54.840251 -0.000000 0.082231 0.412388 -0.341711
7.805000 40.442273 590.590077 -0.000000 0.289723 0.204532 -0.104003 40.989308 -55.311099 -0.000000 0.089068 0.421172 -0.341717
7.810000 56.769945 597.702451 -0.000000 0.283442 0.196757 -0.103695 39.811409 -55.922478 -0.000000 0.096440 0.429501 -0.341817
